<?xml version="1.0" encoding="utf-8"?>
<!-- Generator: Adobe Illustrator 22.0.1, SVG Export Plug-In . SVG Version: 6.00 Build 0)  -->
<svg version="1.1" id="Layer_1" xmlns="http://www.w3.org/2000/svg" xmlns:xlink="http://www.w3.org/1999/xlink" x="0px" y="0px"
	 viewBox="0 0 1280 1024" style="enable-background:new 0 0 1280 1024;" xml:space="preserve">
<style type="text/css">
	.st0{fill:#F2F2F2;}
	.st1{clip-path:url(#SVGID_2_);}
	.st2{fill:#E0E0E0;}
	.st3{fill:#E7E6E6;}
	.st4{clip-path:url(#SVGID_4_);}
	.st5{fill:#CECECE;}
	.st6{fill:#F7F7F7;}
	.st7{fill:#2E82C6;}
	.st8{fill:#EAE0C7;}
	.st9{fill:#FFFFFF;}
</style>
<g>
	<g>
		<g>
			<path class="st0" d="M874.1,625.2c0,0-33.2,2.2-63.2,0c-29.9-2.3-73.4-4.8-92.6-9.3c-19.2-4.5-41.3-5.4-45,5.2h-23.4l0.2-15.5
				l16.1-25.1l52.1-14.2l53.1,6.8l55.9,19L874.1,625.2z"/>
			<g>
				<defs>
					<path id="SVGID_1_" d="M874.1,625.2c0,0-33.2,2.2-63.2,0c-29.9-2.3-73.4-4.8-92.6-9.3c-19.2-4.5-41.3-5.4-45,5.2h-23.4
						l0.2-15.5l16.1-25.1l52.1-14.2l53.1,6.8l55.9,19L874.1,625.2z"/>
				</defs>
				<clipPath id="SVGID_2_">
					<use xlink:href="#SVGID_1_"  style="overflow:visible;"/>
				</clipPath>
				<g class="st1">
					<g>
						<path class="st2" d="M650.7,617.6c9.2-30.6,49.5-27.4,58.9-24.9c13.1,3.4,53.9,12.7,85.8,15.1c33.3,2.5,46.1-0.1,46.6-0.2
							l-1.5-1.7c-0.1,0-12,2.5-45,0c-31.7-2.4-72.5-11.7-85.5-15.1c-9.8-2.5-51.5-5.8-61.2,26.2L650.7,617.6z"/>
					</g>
					<g>
						<path class="st2" d="M650.7,621.4c4.4-12.9,14.9-20.8,31.1-23.3c15.2-2.4,31.3,0.6,37.5,2.1l4.1,0.9
							c18.8,4.3,47.1,10.8,78.9,13.2c34,2.6,44.6-3.6,45-3.8l-1.5-1.4l0.5,0.8l-0.5-0.8c-0.1,0.1-10.1,5.8-43.4,3.3
							c-31.6-2.4-59.9-8.9-78.6-13.2l-4.1-0.9c-7.8-1.8-23.2-4.4-38.1-2.1c-17,2.7-28,10.9-32.6,24.6L650.7,621.4z"/>
					</g>
					<g>
						<path class="st2" d="M649.8,621.2c7.2-12.1,21-17,31.4-19c13.9-2.7,26.7-1.3,33.5,0.7c17.2,5.2,69.3,17.7,96.3,18
							c27.6,0.3,42.4-7,43-7.3l-1.7-1.2c-0.1,0.1-14.1,6.9-41.3,6.6c-26.9-0.3-78.7-12.8-95.8-18c-16.9-5.1-53.7-3.1-66.9,19.1
							L649.8,621.2z"/>
					</g>
					<g>
						<path class="st2" d="M818.4,624.7c1.9,0,3.7,0,5.4-0.1c23.5-0.8,40.5-4.6,40.7-4.6l-1.5-1.7c-0.2,0-15.9,3.6-39.2,4.4
							c-23,0.8-67.7-4.1-82.5-9c-44.2-14.6-74.9-12.1-88.9,7.1l1.5,1.2c13.4-18.5,43.4-20.8,86.8-6.4
							C754.5,620.1,794.3,624.7,818.4,624.7z"/>
					</g>
					<g>
						<path class="st2" d="M753.1,622.3l1.5-1.5c-0.3-0.1-33.2-8.5-42.6-11.7c-5.1-1.7-15.3-2.9-25.2-1.6
							c-8.6,1.1-19.8,4.3-24.4,13.4l1.7,0.9c7.6-15,36.9-14.4,47.3-10.9C720.9,614.2,752.8,622.2,753.1,622.3z"/>
					</g>
					<g>
						<path class="st2" d="M671.1,621.6c0.1-0.4,2.3-9,16.1-7.6l2.5-1.2c-17.2-2.9-20.4,8.2-20.4,8.3L671.1,621.6z"/>
					</g>
				</g>
			</g>
		</g>
		<g>
			<polygon class="st3" points="810.9,435.4 839.9,450.9 874.1,625.2 831,601.5 			"/>
			<g>
				<defs>
					<polygon id="SVGID_3_" points="810.9,435.4 839.9,450.9 874.1,625.2 831,601.5 					"/>
				</defs>
				<clipPath id="SVGID_4_">
					<use xlink:href="#SVGID_3_"  style="overflow:visible;"/>
				</clipPath>
				<g class="st4">
					<g>
						<polygon class="st5" points="841.3,609.5 843.1,609.1 807.9,431.2 806.1,431.7 						"/>
					</g>
					<g>
						<polygon class="st5" points="847.3,615.3 849.1,614.8 813.4,429.8 811.6,430.3 						"/>
					</g>
					<g>
						<polygon class="st5" points="852.3,621.7 854.1,621.2 817.9,429.5 816.1,429.9 						"/>
					</g>
					<g>
						<polygon class="st5" points="858.9,621.1 860.7,620.7 824.5,429 822.7,429.4 						"/>
					</g>
					<g>
						<polygon class="st5" points="865,629 866.8,628.5 830.6,436.8 828.8,437.3 						"/>
					</g>
					<g>
						<polygon class="st5" points="871.7,628.5 873.5,628 837.3,436.3 835.4,436.8 						"/>
					</g>
				</g>
			</g>
		</g>
		<path class="st6" d="M649.9,441.9c0,0,2.8-36.3,53.5-28.1c50.7,8.2,94,18.3,104.7,7.2l34,175.1c0,0-4.2,7.2-27,6.3
			c-22.8-1-59.1-2.9-94.5-12.5c-35.4-9.6-70.7-2.9-70.7,27.5V441.9z"/>
	</g>
	<path class="st7" d="M649.9,629.4v10.8l239.7-6.3c0,0-35.4-186.3-42.8-186.5H454.4c-7.4,0.2-42.8,186.5-42.8,186.5l239.7,6.3v-10.8
		"/>
	<path class="st8" d="M676.2,621.8c0,1.5-0.8,2.6-1.8,2.6h-47.6c-1,0-1.8-1.2-1.8-2.6l0,0c0-1.5,0.8-2.6,1.8-2.6h47.6
		C675.3,619.2,676.2,620.4,676.2,621.8L676.2,621.8z"/>
	<path class="st7" d="M624.9,629.4c0,0,7.4,17.6,24.9,17.6c17.5,0,26.3-17.6,26.3-17.6H624.9z"/>
	<path class="st9" d="M650.5,438.2c0,0,7.5-28.1,43.5-25.4c36,2.7,97.1,26.1,114,8.3l31.8,29.9l34.1,174.3c0,0-91.9,4.4-135.1-6
		c-43.2-10.4-61.9-8.6-64.6,0h-23.1L650.5,438.2z"/>
	<path class="st2" d="M652,438.2c0,0-7.5-28.1-43.5-25.4c-36,2.7-97.1,26.1-114,8.3l-31.8,29.9l-34.1,174.3c0,0,91.9,4.4,135.1-6
		c43.2-10.4,61.9-8.6,64.6,0h23.1L652,438.2z"/>
</g>
<path class="st7" d="M698.5,333V230.1h-95.9V333H499.8v95.9h102.8v102.8h95.9V428.9h102.8V333H698.5z M674.9,407.8
	c-11.2,8.7-17.9,17.6-21.1,22.4c-3.2-4.8-9.9-13.6-21.1-22.4c-17.1-13.4-25.1-24.9-25.1-36.3c0-17.3,11.2-23.4,20.7-23.4
	c8.9,0,17.3,4.9,22.5,13l0.1,0.1l0.1,0.1c0.6,0.8,1.7,1.4,2.8,1.4l0.1,0l0.1,0c1.1,0,2.2-0.6,2.8-1.4l0.1-0.1l0.1-0.1
	c5.2-8.2,13.6-13,22.5-13c9.5,0,20.7,6.1,20.7,23.4C700.1,382.9,692.1,394.4,674.9,407.8z"/>
</svg>
